<?xml version="1.0" encoding="UTF-8"?>
<svg xmlns="http://www.w3.org/2000/svg" viewBox="0 0 1200 1200" width="1200" height="1200"><rect width="1200" height="1200" fill="#f6f2e7"/><circle cx="600.0" cy="600.0" r="504.000" fill="none" stroke="#000000" stroke-width="10.080"/><circle cx="600.0" cy="600.0" r="468.720" fill="none" stroke="#000000" stroke-width="2.520"/><path d="M 586.213,546.302 Q 436.520,368.938 425.517,332.548 Q 485.621,247.978 527.529,244.430 Q 587.472,267.838 600.000,287.923 Q 612.528,267.838 672.471,244.430 Q 714.379,247.978 774.483,332.548 Q 763.480,368.938 613.787,546.302 Z" fill="#000000"/><path d="M 646.810,570.294 Q 769.235,373.119 800.443,351.410 Q 899.448,382.439 915.772,421.199 Q 912.033,485.441 896.803,503.563 Q 919.776,509.271 960.562,559.047 Q 970.138,600.000 908.280,683.296 Q 870.271,684.077 655.331,596.519 Z" fill="#000000"/><path d="M 642.717,635.339 Q 868.073,690.842 898.363,713.815 Q 899.448,817.561 867.629,845.065 Q 805.375,861.361 783.434,852.475 Q 785.104,876.088 750.369,930.259 Q 714.379,952.022 616.045,918.931 Q 603.557,883.024 620.409,651.547 Z" fill="#000000"/><path d="M 579.591,651.547 Q 596.443,883.024 583.955,918.931 Q 485.621,952.022 449.631,930.259 Q 414.896,876.088 416.566,852.475 Q 394.625,861.361 332.371,845.065 Q 300.552,817.561 301.637,713.815 Q 331.927,690.842 557.283,635.339 Z" fill="#000000"/><path d="M 544.669,596.519 Q 329.729,684.077 291.720,683.296 Q 229.862,600.000 239.438,559.047 Q 280.224,509.271 303.197,503.563 Q 287.967,485.441 284.228,421.199 Q 300.552,382.439 399.557,351.410 Q 430.765,373.119 553.190,570.294 Z" fill="#000000"/><circle cx="600.0" cy="600.0" r="42.000" fill="#000000"/></svg>