<svg xmlns="http://www.w3.org/2000/svg" viewBox="0 0 160 340" fill="#0a0a0a">
  <!-- 月代（頭頂部） -->
  <path d="M64,18 Q80,6 96,18 Q100,34 96,46 L64,46 Q60,34 64,18 Z" />
  <!-- 髷（まげ） -->
  <path d="M74,8 Q80,0 86,8 Q88,16 80,22 Q72,16 74,8 Z" />
  <!-- 首 -->
  <rect x="70" y="46" width="20" height="10" />
  <!-- 肩・着物上半身（後ろ姿） -->
  <path d="M70,56
           Q36,64 30,120
           Q28,140 32,152
           L60,148
           L66,110
           L70,56 Z" />
  <path d="M90,56
           Q124,64 130,120
           Q132,140 128,152
           L100,148
           L94,110
           L90,56 Z" />
  <!-- 胴体中央 -->
  <path d="M70,56 L66,110 L70,170 L60,200 L80,210 L100,200 L90,170 L94,110 L90,56 Z" />
  <!-- 腰の帯 -->
  <path d="M58,168 L102,168 L104,184 L56,184 Z" />
  <!-- 袴（裾広がり） -->
  <path d="M60,200
           L42,320
           L58,330
           L82,325
           L80,210 Z" />
  <path d="M100,200
           L118,320
           L102,330
           L78,325
           L80,210 Z" />
  <!-- 刀（腰差し・斜め） -->
  <g transform="rotate(-18, 55, 178)">
    <rect x="2" y="174" width="120" height="7" rx="3" />
    <rect x="118" y="172" width="18" height="11" rx="2" />
  </g>
</svg>
