<svg xmlns="http://www.w3.org/2000/svg" viewBox="0 0 160 340" fill="#0a0a0a">
  <!-- 頭 -->
  <path d="M48,36
           Q54,18 80,18
           Q106,18 112,36
           L110,92
           Q80,100 50,92 Z" />
  <!-- 頭の鉢巻（マタンプシ）- 切り欠き風 -->
  <g fill="#e8dfc9">
    <rect x="46" y="58" width="68" height="8" />
  </g>
  <!-- 首 -->
  <path d="M56,92 L54,110 L106,110 L104,92 Z" />
  <!-- 胴体（樽型） -->
  <path d="M36,110
           Q28,140 26,200
           Q24,260 28,308
           Q34,324 80,326
           Q126,324 132,308
           Q136,260 134,200
           Q132,140 124,110 Z" />
  <!-- 中央の縦切り込み（木彫り表現） -->
  <g fill="#e8dfc9">
    <rect x="78" y="115" width="4" height="200" />
  </g>
  <!-- アイヌ文様（モレウ渦）の抽象 -->
  <g fill="#e8dfc9">
    <!-- 上の渦っぽい丸 -->
    <circle cx="58" cy="160" r="6" />
    <circle cx="102" cy="160" r="6" />
    <!-- 中央のライン -->
    <rect x="58" y="218" width="44" height="4" />
    <!-- 下の渦 -->
    <circle cx="58" cy="260" r="6" />
    <circle cx="102" cy="260" r="6" />
  </g>
  <!-- 台座 -->
  <path d="M28,322 L132,322 L138,338 L22,338 Z" />
</svg>
