<?xml version="1.0" encoding="UTF-8"?>
<svg xmlns="http://www.w3.org/2000/svg" viewBox="0 0 1200 1200" width="1200" height="1200"><title>SAMURAI UTARI Logomark</title><defs><clipPath id="cm"><circle cx="600.000" cy="600.000" r="474.768"/></clipPath><radialGradient id="gc" cx="40%" cy="40%" r="70%"><stop offset="0%" stop-color="#b23818"/><stop offset="60%" stop-color="#8b2500"/><stop offset="100%" stop-color="#6a1c00"/></radialGradient></defs>
  <g clip-path="url(#cm)"><line x1="155.862" y1="125.232" x2="155.862" y2="1074.768" stroke="#123563" stroke-width="1.6128" opacity="0.28"/>
        <line x1="186.492" y1="125.232" x2="186.492" y2="1074.768" stroke="#123563" stroke-width="1.6128" opacity="0.28"/>
        <line x1="217.123" y1="125.232" x2="217.123" y2="1074.768" stroke="#123563" stroke-width="1.6128" opacity="0.28"/>
        <line x1="247.753" y1="125.232" x2="247.753" y2="1074.768" stroke="#123563" stroke-width="1.6128" opacity="0.28"/>
        <line x1="278.383" y1="125.232" x2="278.383" y2="1074.768" stroke="#123563" stroke-width="1.6128" opacity="0.28"/>
        <line x1="309.013" y1="125.232" x2="309.013" y2="1074.768" stroke="#123563" stroke-width="1.6128" opacity="0.28"/>
        <line x1="339.643" y1="125.232" x2="339.643" y2="1074.768" stroke="#123563" stroke-width="1.6128" opacity="0.28"/>
        <line x1="370.274" y1="125.232" x2="370.274" y2="1074.768" stroke="#123563" stroke-width="1.6128" opacity="0.28"/>
        <line x1="400.904" y1="125.232" x2="400.904" y2="1074.768" stroke="#123563" stroke-width="1.6128" opacity="0.28"/>
        <line x1="431.534" y1="125.232" x2="431.534" y2="1074.768" stroke="#123563" stroke-width="1.6128" opacity="0.28"/>
        <line x1="462.164" y1="125.232" x2="462.164" y2="1074.768" stroke="#123563" stroke-width="1.6128" opacity="0.28"/>
        <line x1="492.794" y1="125.232" x2="492.794" y2="1074.768" stroke="#123563" stroke-width="1.6128" opacity="0.28"/>
        <line x1="523.425" y1="125.232" x2="523.425" y2="1074.768" stroke="#123563" stroke-width="1.6128" opacity="0.28"/>
        <line x1="554.055" y1="125.232" x2="554.055" y2="1074.768" stroke="#123563" stroke-width="1.6128" opacity="0.28"/>
        <line x1="584.685" y1="125.232" x2="584.685" y2="1074.768" stroke="#123563" stroke-width="1.6128" opacity="0.28"/>
        <line x1="615.315" y1="125.232" x2="615.315" y2="1074.768" stroke="#123563" stroke-width="1.6128" opacity="0.28"/>
        <line x1="645.945" y1="125.232" x2="645.945" y2="1074.768" stroke="#123563" stroke-width="1.6128" opacity="0.28"/>
        <line x1="676.575" y1="125.232" x2="676.575" y2="1074.768" stroke="#123563" stroke-width="1.6128" opacity="0.28"/>
        <line x1="707.206" y1="125.232" x2="707.206" y2="1074.768" stroke="#123563" stroke-width="1.6128" opacity="0.28"/>
        <line x1="737.836" y1="125.232" x2="737.836" y2="1074.768" stroke="#123563" stroke-width="1.6128" opacity="0.28"/>
        <line x1="768.466" y1="125.232" x2="768.466" y2="1074.768" stroke="#123563" stroke-width="1.6128" opacity="0.28"/>
        <line x1="799.096" y1="125.232" x2="799.096" y2="1074.768" stroke="#123563" stroke-width="1.6128" opacity="0.28"/>
        <line x1="829.726" y1="125.232" x2="829.726" y2="1074.768" stroke="#123563" stroke-width="1.6128" opacity="0.28"/>
        <line x1="860.357" y1="125.232" x2="860.357" y2="1074.768" stroke="#123563" stroke-width="1.6128" opacity="0.28"/>
        <line x1="890.987" y1="125.232" x2="890.987" y2="1074.768" stroke="#123563" stroke-width="1.6128" opacity="0.28"/>
        <line x1="921.617" y1="125.232" x2="921.617" y2="1074.768" stroke="#123563" stroke-width="1.6128" opacity="0.28"/>
        <line x1="952.247" y1="125.232" x2="952.247" y2="1074.768" stroke="#123563" stroke-width="1.6128" opacity="0.28"/>
        <line x1="982.877" y1="125.232" x2="982.877" y2="1074.768" stroke="#123563" stroke-width="1.6128" opacity="0.28"/>
        <line x1="1013.508" y1="125.232" x2="1013.508" y2="1074.768" stroke="#123563" stroke-width="1.6128" opacity="0.28"/>
        <line x1="1044.138" y1="125.232" x2="1044.138" y2="1074.768" stroke="#123563" stroke-width="1.6128" opacity="0.28"/></g>
  <circle cx="600.000" cy="600.000" r="504.000" fill="none" stroke="#123563" stroke-width="17.640"/>
  <circle cx="600.000" cy="600.000" r="474.768" fill="none" stroke="#123563" stroke-width="4.284"/>
  <g><path d="M 581.038,521.621 C 556.635,518.028 448.837,370.052 438.801,334.665 C 445.622,290.636 490.712,257.141 533.408,253.542 C 566.721,250.545 588.722,283.386 600.000,307.176 C 611.278,283.386 633.279,250.545 666.592,253.542 C 709.288,257.141 754.378,290.636 761.199,334.665 C 751.163,370.052 643.365,518.028 618.962,521.621 Z" fill="#123563" stroke="#0a2044" stroke-width="2.016" stroke-linejoin="round"/>
        <path d="M 668.683,557.746 C 664.559,533.426 771.982,385.178 802.535,364.697 C 846.517,357.579 892.306,390.111 908.923,429.606 C 922.068,460.362 897.632,491.435 878.492,509.512 C 904.602,512.887 942.635,523.663 950.079,556.271 C 959.850,597.990 941.928,651.224 902.162,671.317 C 865.405,672.706 691.361,615.912 680.402,593.813 Z" fill="#123563" stroke="#0a2044" stroke-width="2.016" stroke-linejoin="round"/>
        <path d="M 661.410,652.264 C 683.265,640.827 857.453,697.181 886.373,719.910 C 906.734,759.540 889.944,813.141 857.517,841.149 C 832.328,863.154 795.225,849.517 772.118,836.900 C 776.977,862.775 778.481,902.276 749.769,919.432 C 713.111,941.617 656.945,941.022 625.547,909.411 C 612.867,874.883 613.099,691.806 630.730,674.555 Z" fill="#123563" stroke="#0a2044" stroke-width="2.016" stroke-linejoin="round"/>
        <path d="M 569.270,674.555 C 586.901,691.806 587.133,874.883 574.453,909.411 C 543.055,941.022 486.889,941.617 450.231,919.432 C 421.519,902.276 423.023,862.775 427.882,836.900 C 404.775,849.517 367.672,863.154 342.483,841.149 C 310.056,813.141 293.266,759.540 313.627,719.910 C 342.547,697.181 516.735,640.827 538.590,652.264 Z" fill="#123563" stroke="#0a2044" stroke-width="2.016" stroke-linejoin="round"/>
        <path d="M 519.598,593.813 C 508.639,615.912 334.595,672.706 297.838,671.317 C 258.072,651.224 240.150,597.990 249.921,556.271 C 257.365,523.663 295.398,512.887 321.508,509.512 C 302.368,491.435 277.932,460.362 291.077,429.606 C 307.694,390.111 353.483,357.579 397.465,364.697 C 428.018,385.178 535.441,533.426 531.317,557.746 Z" fill="#123563" stroke="#0a2044" stroke-width="2.016" stroke-linejoin="round"/></g>
  <circle cx="600.000" cy="600.000" r="83.160" fill="url(#gc)" stroke="#0a2044" stroke-width="2.520"/>
  <g><line x1="600.000" y1="593.196" x2="600.000" y2="537.403" stroke="#0a2044" stroke-width="2.2" stroke-linecap="round" opacity="0.95"/>
        <circle cx="600.000" cy="531.960" r="6.124" fill="#0a2044"/>
        <line x1="603.999" y1="594.495" x2="636.793" y2="549.358" stroke="#0a2044" stroke-width="2.2" stroke-linecap="round" opacity="0.95"/>
        <circle cx="639.993" cy="544.954" r="6.124" fill="#0a2044"/>
        <line x1="606.471" y1="597.897" x2="659.533" y2="580.657" stroke="#0a2044" stroke-width="2.2" stroke-linecap="round" opacity="0.95"/>
        <circle cx="664.710" cy="578.974" r="6.124" fill="#0a2044"/>
        <line x1="606.471" y1="602.103" x2="659.533" y2="619.343" stroke="#0a2044" stroke-width="2.2" stroke-linecap="round" opacity="0.95"/>
        <circle cx="664.710" cy="621.026" r="6.124" fill="#0a2044"/>
        <line x1="603.999" y1="605.505" x2="636.793" y2="650.642" stroke="#0a2044" stroke-width="2.2" stroke-linecap="round" opacity="0.95"/>
        <circle cx="639.993" cy="655.046" r="6.124" fill="#0a2044"/>
        <line x1="600.000" y1="606.804" x2="600.000" y2="662.597" stroke="#0a2044" stroke-width="2.2" stroke-linecap="round" opacity="0.95"/>
        <circle cx="600.000" cy="668.040" r="6.124" fill="#0a2044"/>
        <line x1="596.001" y1="605.505" x2="563.207" y2="650.642" stroke="#0a2044" stroke-width="2.2" stroke-linecap="round" opacity="0.95"/>
        <circle cx="560.007" cy="655.046" r="6.124" fill="#0a2044"/>
        <line x1="593.529" y1="602.103" x2="540.467" y2="619.343" stroke="#0a2044" stroke-width="2.2" stroke-linecap="round" opacity="0.95"/>
        <circle cx="535.290" cy="621.026" r="6.124" fill="#0a2044"/>
        <line x1="593.529" y1="597.897" x2="540.467" y2="580.657" stroke="#0a2044" stroke-width="2.2" stroke-linecap="round" opacity="0.95"/>
        <circle cx="535.290" cy="578.974" r="6.124" fill="#0a2044"/>
        <line x1="596.001" y1="594.495" x2="563.207" y2="549.358" stroke="#0a2044" stroke-width="2.2" stroke-linecap="round" opacity="0.95"/>
        <circle cx="560.007" cy="544.954" r="6.124" fill="#0a2044"/></g>
  <circle cx="600.000" cy="600.000" r="24.192" fill="#8b2500"/>
  <circle cx="591.533" cy="591.533" r="8.467" fill="#b23818" opacity="0.8"/>
  <g clip-path="url(#cm)"><path d="M 484.800,497.019 Q 710.575,386.450 887.922,277.225 L 885.332,278.720 Q 695.125,359.690 467.357,466.806 Z" fill="#123563" stroke="#0a2044" stroke-width="1.6" stroke-linejoin="round"/><path d="M 484.800,497.019 Q 710.575,386.450 887.922,277.225" fill="none" stroke="#c9dbf2" stroke-width="1.5" opacity="0.55"/><path d="M 480.012,476.764 Q 695.935,361.093 878.257,286.402" fill="none" stroke="#1f4a86" stroke-width="1.0" opacity="0.7"/><polygon points="467.369,504.206 481.810,491.840 467.855,467.669 449.925,473.993" fill="#1f4a86" stroke="#0a2044" stroke-width="0.8"/><polygon points="478.088,533.985 458.647,489.099 429.495,449.821 448.936,494.706" fill="#0a2044" stroke="#1f4a86" stroke-width="1.0"/><circle cx="453.791" cy="491.903" r="6.317" fill="none" stroke="#1f4a86" stroke-width="0.7"/><polygon points="339.400,579.095 458.530,511.323 439.342,478.089 321.085,547.372" fill="#0a2044" stroke="#1f4a86" stroke-width="0.6"/><line x1="359.182" y1="567.674" x2="340.867" y2="535.951" stroke="#1f4a86" stroke-width="0.7" opacity="0.7"/><line x1="378.965" y1="556.253" x2="360.649" y2="524.529" stroke="#1f4a86" stroke-width="0.7" opacity="0.7"/><line x1="398.747" y1="544.832" x2="380.431" y2="513.108" stroke="#1f4a86" stroke-width="0.7" opacity="0.7"/><line x1="418.529" y1="533.410" x2="400.214" y2="501.687" stroke="#1f4a86" stroke-width="0.7" opacity="0.7"/><line x1="438.311" y1="521.989" x2="419.996" y2="490.266" stroke="#1f4a86" stroke-width="0.7" opacity="0.7"/><ellipse cx="330.243" cy="563.234" rx="10.466" ry="24.421" transform="rotate(-30 330.243 563.234)" fill="#0a2044" stroke="#1f4a86" stroke-width="0.8"/></g>
  <g clip-path="url(#cm)"><defs><linearGradient id="grad_cmslash" x1="104.034" y1="556.451" x2="976.988" y2="52.451" gradientUnits="userSpaceOnUse"><stop offset="0%" stop-color="#8b2500" stop-opacity="0"/><stop offset="38.2%" stop-color="#b23818" stop-opacity="0.0"/><stop offset="50%" stop-color="#b23818" stop-opacity="0.90"/><stop offset="61.8%" stop-color="#8b2500" stop-opacity="0.95"/><stop offset="76.4%" stop-color="#8b2500" stop-opacity="0.5"/><stop offset="100%" stop-color="#8b2500" stop-opacity="0"/></linearGradient></defs><line x1="104.034" y1="556.451" x2="976.988" y2="52.451" stroke="url(#grad_cmslash)" stroke-width="6.048" stroke-linecap="round"/></g></svg>