<?xml version="1.0" encoding="UTF-8"?>
<svg xmlns="http://www.w3.org/2000/svg" viewBox="0 0 1200 1200" width="1200" height="1200"><title>SAMURAI UTARI - SAMURAI UTARI</title><defs><clipPath id="cm2"><circle cx="600.000" cy="456.000" r="361.728"/></clipPath><radialGradient id="gc2" cx="40%" cy="40%" r="70%"><stop offset="0%" stop-color="#b23818"/><stop offset="60%" stop-color="#8b2500"/><stop offset="100%" stop-color="#6a1c00"/></radialGradient></defs>
  <g clip-path="url(#cm2)"><line x1="265.067" y1="94.272" x2="265.067" y2="817.728" stroke="#123563" stroke-width="1.2288000000000001" opacity="0.28"/>
        <line x1="291.861" y1="94.272" x2="291.861" y2="817.728" stroke="#123563" stroke-width="1.2288000000000001" opacity="0.28"/>
        <line x1="318.656" y1="94.272" x2="318.656" y2="817.728" stroke="#123563" stroke-width="1.2288000000000001" opacity="0.28"/>
        <line x1="345.451" y1="94.272" x2="345.451" y2="817.728" stroke="#123563" stroke-width="1.2288000000000001" opacity="0.28"/>
        <line x1="372.245" y1="94.272" x2="372.245" y2="817.728" stroke="#123563" stroke-width="1.2288000000000001" opacity="0.28"/>
        <line x1="399.040" y1="94.272" x2="399.040" y2="817.728" stroke="#123563" stroke-width="1.2288000000000001" opacity="0.28"/>
        <line x1="425.835" y1="94.272" x2="425.835" y2="817.728" stroke="#123563" stroke-width="1.2288000000000001" opacity="0.28"/>
        <line x1="452.629" y1="94.272" x2="452.629" y2="817.728" stroke="#123563" stroke-width="1.2288000000000001" opacity="0.28"/>
        <line x1="479.424" y1="94.272" x2="479.424" y2="817.728" stroke="#123563" stroke-width="1.2288000000000001" opacity="0.28"/>
        <line x1="506.219" y1="94.272" x2="506.219" y2="817.728" stroke="#123563" stroke-width="1.2288000000000001" opacity="0.28"/>
        <line x1="533.013" y1="94.272" x2="533.013" y2="817.728" stroke="#123563" stroke-width="1.2288000000000001" opacity="0.28"/>
        <line x1="559.808" y1="94.272" x2="559.808" y2="817.728" stroke="#123563" stroke-width="1.2288000000000001" opacity="0.28"/>
        <line x1="586.603" y1="94.272" x2="586.603" y2="817.728" stroke="#123563" stroke-width="1.2288000000000001" opacity="0.28"/>
        <line x1="613.397" y1="94.272" x2="613.397" y2="817.728" stroke="#123563" stroke-width="1.2288000000000001" opacity="0.28"/>
        <line x1="640.192" y1="94.272" x2="640.192" y2="817.728" stroke="#123563" stroke-width="1.2288000000000001" opacity="0.28"/>
        <line x1="666.987" y1="94.272" x2="666.987" y2="817.728" stroke="#123563" stroke-width="1.2288000000000001" opacity="0.28"/>
        <line x1="693.781" y1="94.272" x2="693.781" y2="817.728" stroke="#123563" stroke-width="1.2288000000000001" opacity="0.28"/>
        <line x1="720.576" y1="94.272" x2="720.576" y2="817.728" stroke="#123563" stroke-width="1.2288000000000001" opacity="0.28"/>
        <line x1="747.371" y1="94.272" x2="747.371" y2="817.728" stroke="#123563" stroke-width="1.2288000000000001" opacity="0.28"/>
        <line x1="774.165" y1="94.272" x2="774.165" y2="817.728" stroke="#123563" stroke-width="1.2288000000000001" opacity="0.28"/>
        <line x1="800.960" y1="94.272" x2="800.960" y2="817.728" stroke="#123563" stroke-width="1.2288000000000001" opacity="0.28"/>
        <line x1="827.755" y1="94.272" x2="827.755" y2="817.728" stroke="#123563" stroke-width="1.2288000000000001" opacity="0.28"/>
        <line x1="854.549" y1="94.272" x2="854.549" y2="817.728" stroke="#123563" stroke-width="1.2288000000000001" opacity="0.28"/>
        <line x1="881.344" y1="94.272" x2="881.344" y2="817.728" stroke="#123563" stroke-width="1.2288000000000001" opacity="0.28"/>
        <line x1="908.139" y1="94.272" x2="908.139" y2="817.728" stroke="#123563" stroke-width="1.2288000000000001" opacity="0.28"/>
        <line x1="934.933" y1="94.272" x2="934.933" y2="817.728" stroke="#123563" stroke-width="1.2288000000000001" opacity="0.28"/></g>
  <circle cx="600.000" cy="456.000" r="384.000" fill="none" stroke="#123563" stroke-width="13.440"/>
  <circle cx="600.000" cy="456.000" r="361.728" fill="none" stroke="#123563" stroke-width="3.264"/>
  <g><path d="M 585.553,396.283 C 566.960,393.545 484.829,280.801 477.181,253.840 C 482.379,220.294 516.733,194.774 549.263,192.032 C 574.644,189.749 591.407,214.771 600.000,232.896 C 608.593,214.771 625.356,189.749 650.737,192.032 C 683.267,194.774 717.621,220.294 722.819,253.840 C 715.171,280.801 633.040,393.545 614.447,396.283 Z" fill="#123563" stroke="#0a2044" stroke-width="1.536" stroke-linejoin="round"/>
        <path d="M 652.330,423.806 C 649.188,405.277 731.034,292.326 754.313,276.722 C 787.823,271.298 822.710,296.085 835.370,326.176 C 845.385,349.609 826.768,373.284 812.185,387.057 C 832.078,389.628 861.055,397.839 866.727,422.683 C 874.172,454.469 860.517,495.027 830.219,510.337 C 802.214,511.395 669.608,468.124 661.259,451.286 Z" fill="#123563" stroke="#0a2044" stroke-width="1.536" stroke-linejoin="round"/>
        <path d="M 646.789,495.820 C 663.440,487.106 796.155,530.042 818.189,547.360 C 833.702,577.554 820.910,618.393 796.203,639.732 C 777.012,656.498 748.743,646.108 731.137,636.495 C 734.840,656.209 735.985,686.306 714.110,699.377 C 686.180,716.280 643.387,715.826 619.464,691.742 C 609.803,665.435 609.980,525.948 623.413,512.804 Z" fill="#123563" stroke="#0a2044" stroke-width="1.536" stroke-linejoin="round"/>
        <path d="M 576.587,512.804 C 590.020,525.948 590.197,665.435 580.536,691.742 C 556.613,715.826 513.820,716.280 485.890,699.377 C 464.015,686.306 465.160,656.209 468.863,636.495 C 451.257,646.108 422.988,656.498 403.797,639.732 C 379.090,618.393 366.298,577.554 381.811,547.360 C 403.845,530.042 536.560,487.106 553.211,495.820 Z" fill="#123563" stroke="#0a2044" stroke-width="1.536" stroke-linejoin="round"/>
        <path d="M 538.741,451.286 C 530.392,468.124 397.786,511.395 369.781,510.337 C 339.483,495.027 325.828,454.469 333.273,422.683 C 338.945,397.839 367.922,389.628 387.815,387.057 C 373.232,373.284 354.615,349.609 364.630,326.176 C 377.290,296.085 412.177,271.298 445.687,276.722 C 468.966,292.326 550.812,405.277 547.670,423.806 Z" fill="#123563" stroke="#0a2044" stroke-width="1.536" stroke-linejoin="round"/></g>
  <circle cx="600.000" cy="456.000" r="63.360" fill="url(#gc2)" stroke="#0a2044" stroke-width="1.920"/>
  <g><line x1="600.000" y1="450.816" x2="600.000" y2="408.307" stroke="#0a2044" stroke-width="2.2" stroke-linecap="round" opacity="0.95"/>
        <circle cx="600.000" cy="404.160" r="4.666" fill="#0a2044"/>
        <line x1="603.047" y1="451.806" x2="628.033" y2="417.416" stroke="#0a2044" stroke-width="2.2" stroke-linecap="round" opacity="0.95"/>
        <circle cx="630.471" cy="414.061" r="4.666" fill="#0a2044"/>
        <line x1="604.930" y1="454.398" x2="645.359" y2="441.262" stroke="#0a2044" stroke-width="2.2" stroke-linecap="round" opacity="0.95"/>
        <circle cx="649.303" cy="439.981" r="4.666" fill="#0a2044"/>
        <line x1="604.930" y1="457.602" x2="645.359" y2="470.738" stroke="#0a2044" stroke-width="2.2" stroke-linecap="round" opacity="0.95"/>
        <circle cx="649.303" cy="472.019" r="4.666" fill="#0a2044"/>
        <line x1="603.047" y1="460.194" x2="628.033" y2="494.584" stroke="#0a2044" stroke-width="2.2" stroke-linecap="round" opacity="0.95"/>
        <circle cx="630.471" cy="497.939" r="4.666" fill="#0a2044"/>
        <line x1="600.000" y1="461.184" x2="600.000" y2="503.693" stroke="#0a2044" stroke-width="2.2" stroke-linecap="round" opacity="0.95"/>
        <circle cx="600.000" cy="507.840" r="4.666" fill="#0a2044"/>
        <line x1="596.953" y1="460.194" x2="571.967" y2="494.584" stroke="#0a2044" stroke-width="2.2" stroke-linecap="round" opacity="0.95"/>
        <circle cx="569.529" cy="497.939" r="4.666" fill="#0a2044"/>
        <line x1="595.070" y1="457.602" x2="554.641" y2="470.738" stroke="#0a2044" stroke-width="2.2" stroke-linecap="round" opacity="0.95"/>
        <circle cx="550.697" cy="472.019" r="4.666" fill="#0a2044"/>
        <line x1="595.070" y1="454.398" x2="554.641" y2="441.262" stroke="#0a2044" stroke-width="2.2" stroke-linecap="round" opacity="0.95"/>
        <circle cx="550.697" cy="439.981" r="4.666" fill="#0a2044"/>
        <line x1="596.953" y1="451.806" x2="571.967" y2="417.416" stroke="#0a2044" stroke-width="2.2" stroke-linecap="round" opacity="0.95"/>
        <circle cx="569.529" cy="414.061" r="4.666" fill="#0a2044"/></g>
  <circle cx="600.000" cy="456.000" r="18.432" fill="#8b2500"/>
  <circle cx="593.549" cy="449.549" r="6.451" fill="#b23818" opacity="0.8"/>
  <g clip-path="url(#cm2)"><path d="M 512.229,377.538 Q 684.248,293.295 819.369,210.076 L 817.396,211.215 Q 672.476,272.907 498.938,354.519 Z" fill="#123563" stroke="#0a2044" stroke-width="1.6" stroke-linejoin="round"/><path d="M 512.229,377.538 Q 684.248,293.295 819.369,210.076" fill="none" stroke="#c9dbf2" stroke-width="1.5" opacity="0.55"/><path d="M 508.580,362.106 Q 673.093,273.976 812.005,217.068" fill="none" stroke="#1f4a86" stroke-width="1.0" opacity="0.7"/><polygon points="498.948,383.014 509.950,373.592 499.318,355.177 485.657,359.995" fill="#1f4a86" stroke="#0a2044" stroke-width="0.8"/><polygon points="507.114,405.703 492.303,371.504 470.092,341.578 484.903,375.776" fill="#0a2044" stroke="#1f4a86" stroke-width="1.0"/><circle cx="488.603" cy="373.640" r="4.813" fill="none" stroke="#1f4a86" stroke-width="0.7"/><polygon points="401.448,440.073 492.213,388.437 477.594,363.115 387.493,415.902" fill="#0a2044" stroke="#1f4a86" stroke-width="0.6"/><line x1="416.520" y1="431.371" x2="402.565" y2="407.201" stroke="#1f4a86" stroke-width="0.7" opacity="0.7"/><line x1="431.592" y1="422.669" x2="417.637" y2="398.499" stroke="#1f4a86" stroke-width="0.7" opacity="0.7"/><line x1="446.664" y1="413.967" x2="432.710" y2="389.797" stroke="#1f4a86" stroke-width="0.7" opacity="0.7"/><line x1="461.736" y1="405.265" x2="447.782" y2="381.095" stroke="#1f4a86" stroke-width="0.7" opacity="0.7"/><line x1="476.809" y1="396.563" x2="462.854" y2="372.393" stroke="#1f4a86" stroke-width="0.7" opacity="0.7"/><ellipse cx="394.470" cy="427.988" rx="7.974" ry="18.606" transform="rotate(-30 394.470 427.988)" fill="#0a2044" stroke="#1f4a86" stroke-width="0.8"/></g>
  <g clip-path="url(#cm2)"><defs><linearGradient id="grad_cm2slash" x1="222.121" y1="422.820" x2="887.229" y2="38.820" gradientUnits="userSpaceOnUse"><stop offset="0%" stop-color="#8b2500" stop-opacity="0"/><stop offset="38.2%" stop-color="#b23818" stop-opacity="0.0"/><stop offset="50%" stop-color="#b23818" stop-opacity="0.90"/><stop offset="61.8%" stop-color="#8b2500" stop-opacity="0.95"/><stop offset="76.4%" stop-color="#8b2500" stop-opacity="0.5"/><stop offset="100%" stop-color="#8b2500" stop-opacity="0"/></linearGradient></defs><line x1="222.121" y1="422.820" x2="887.229" y2="38.820" stroke="url(#grad_cm2slash)" stroke-width="4.608" stroke-linecap="round"/></g><line x1="360.000" y1="1044.000" x2="573.600" y2="1044.000" stroke="#123563" stroke-width="1.2" opacity="0.8"/><line x1="626.400" y1="1044.000" x2="840.000" y2="1044.000" stroke="#123563" stroke-width="1.2" opacity="0.8"/><polygon points="600.000,1032.000 612.000,1044.000 600.000,1056.000 588.000,1044.000" fill="#8b2500"/><text x="600.000" y="1002.000" text-anchor="middle" font-family="'Cinzel','Trajan Pro','Optima','Times New Roman',serif" font-weight="700" font-size="79.200" fill="#123563" letter-spacing="24.000">SAMURAI UTARI</text><text x="600.000" y="1128.000" text-anchor="middle" font-family="'Cinzel','Optima',serif" font-weight="500" font-size="24.000" fill="#8b2500" letter-spacing="36.000">INCORPORATED</text></svg>