<?xml version="1.0" encoding="UTF-8"?>
<svg xmlns="http://www.w3.org/2000/svg" viewBox="0 0 32 32" width="32" height="32"><title>SAMURAI UTARI Primary Mark</title><rect width="32" height="32" fill="#f6f2e7"/><circle cx="16.000" cy="16.000" r="13.440" fill="none" stroke="#123563" stroke-width="0.296"/><circle cx="16.000" cy="16.000" r="12.566" fill="none" stroke="#123563" stroke-width="0.067"/><path d="M 15.718,14.549 Q 15.156,13.493 13.965,10.408 Q 13.807,7.460 16.017,6.081 L 16.865,5.013 L 17.466,6.190 Q 18.445,7.529 17.719,9.843 Q 16.835,13.490 16.282,14.549 Z" fill="#123563"/><path d="M 17.293,15.283 Q 18.123,14.423 20.690,12.336 Q 23.444,11.276 25.439,12.951 L 26.716,13.427 L 25.783,14.363 Q 24.812,15.708 22.386,15.732 Q 18.645,16.018 17.467,15.820 Z" fill="#123563"/><path d="M 17.081,17.008 Q 18.156,17.532 20.934,19.328 Q 22.793,21.620 21.816,24.035 L 21.758,25.397 L 20.580,24.798 Q 19.001,24.290 18.228,21.991 Q 16.800,18.521 16.625,17.340 Z" fill="#123563"/><path d="M 15.375,17.340 Q 15.209,18.524 14.360,21.721 Q 12.754,24.198 10.156,24.014 L 8.843,24.380 L 9.048,23.075 Q 9.043,21.416 10.991,19.970 Q 13.849,17.540 14.919,17.008 Z" fill="#123563"/><path d="M 14.533,15.820 Q 13.355,16.028 10.052,16.208 Q 7.201,15.446 6.572,12.918 L 5.818,11.783 L 7.123,11.574 Q 8.699,11.057 10.676,12.463 Q 13.871,14.430 14.707,15.283 Z" fill="#123563"/><circle cx="16.000" cy="16.000" r="0.833" fill="#8b2500"/><ellipse cx="15.708" cy="15.667" rx="0.267" ry="0.150" transform="rotate(-30 15.708 15.667)" fill="#ffffff" opacity="0.55"/><circle cx="16.000" cy="16.000" r="0.183" fill="#0a2044"/></svg>