<?xml version="1.0" encoding="UTF-8"?>
<svg xmlns="http://www.w3.org/2000/svg" viewBox="0 0 16 16" width="16" height="16"><title>SAMURAI UTARI Primary Mark</title><rect width="16" height="16" fill="#f6f2e7"/><circle cx="8.000" cy="8.000" r="6.720" fill="none" stroke="#123563" stroke-width="0.148"/><circle cx="8.000" cy="8.000" r="6.283" fill="none" stroke="#123563" stroke-width="0.034"/><path d="M 7.859,7.274 Q 7.578,6.747 6.982,5.204 Q 6.904,3.730 8.009,3.041 L 8.432,2.507 L 8.733,3.095 Q 9.222,3.765 8.859,4.922 Q 8.417,6.745 8.141,7.274 Z" fill="#123563"/><path d="M 8.647,7.642 Q 9.062,7.211 10.345,6.168 Q 11.722,5.638 12.719,6.476 L 13.358,6.714 L 12.891,7.181 Q 12.406,7.854 11.193,7.866 Q 9.322,8.009 8.734,7.910 Z" fill="#123563"/><path d="M 8.541,8.504 Q 9.078,8.766 10.467,9.664 Q 11.397,10.810 10.908,12.017 L 10.879,12.698 L 10.290,12.399 Q 9.501,12.145 9.114,10.996 Q 8.400,9.261 8.312,8.670 Z" fill="#123563"/><path d="M 7.688,8.670 Q 7.605,9.262 7.180,10.860 Q 6.377,12.099 5.078,12.007 L 4.421,12.190 L 4.524,11.537 Q 4.521,10.708 5.495,9.985 Q 6.925,8.770 7.459,8.504 Z" fill="#123563"/><path d="M 7.266,7.910 Q 6.678,8.014 5.026,8.104 Q 3.600,7.723 3.286,6.459 L 2.909,5.891 L 3.562,5.787 Q 4.350,5.529 5.338,6.231 Q 6.936,7.215 7.353,7.642 Z" fill="#123563"/><circle cx="8.000" cy="8.000" r="0.417" fill="#8b2500"/><ellipse cx="7.854" cy="7.833" rx="0.133" ry="0.075" transform="rotate(-30 7.854 7.833)" fill="#ffffff" opacity="0.55"/><circle cx="8.000" cy="8.000" r="0.092" fill="#0a2044"/></svg>