<?xml version="1.0" encoding="UTF-8"?>
<svg xmlns="http://www.w3.org/2000/svg" viewBox="0 0 48 48" width="48" height="48"><title>SAMURAI UTARI Primary Mark</title><rect width="48" height="48" fill="#f6f2e7"/><circle cx="24.000" cy="24.000" r="20.160" fill="none" stroke="#123563" stroke-width="0.444"/><circle cx="24.000" cy="24.000" r="18.850" fill="none" stroke="#123563" stroke-width="0.101"/><path d="M 23.577,21.823 Q 22.735,20.240 20.947,15.612 Q 20.711,11.191 24.026,9.122 L 25.297,7.520 L 26.199,9.285 Q 27.667,11.294 26.578,14.765 Q 25.252,20.235 24.423,21.823 Z" fill="#123563"/><path d="M 25.940,22.925 Q 27.185,21.634 31.034,18.504 Q 35.166,16.914 38.158,19.427 L 40.074,20.141 L 38.674,21.544 Q 37.218,23.562 33.580,23.598 Q 27.967,24.028 26.201,23.730 Z" fill="#123563"/><path d="M 25.622,25.512 Q 27.234,26.298 31.401,28.992 Q 34.190,32.430 32.724,36.052 L 32.638,38.095 L 30.870,37.197 Q 28.502,36.435 27.342,32.987 Q 25.200,27.782 24.937,26.010 Z" fill="#123563"/><path d="M 23.063,26.010 Q 22.814,27.786 21.539,32.581 Q 19.132,36.296 15.234,36.021 L 13.264,36.570 L 13.572,34.612 Q 13.564,32.124 16.486,29.956 Q 20.774,26.310 22.378,25.512 Z" fill="#123563"/><path d="M 21.799,23.730 Q 20.033,24.042 15.079,24.312 Q 10.801,23.170 9.858,19.378 L 8.727,17.674 L 10.685,17.361 Q 13.049,16.586 16.014,18.694 Q 20.807,21.646 22.060,22.925 Z" fill="#123563"/><circle cx="24.000" cy="24.000" r="1.250" fill="#8b2500"/><ellipse cx="23.563" cy="23.500" rx="0.400" ry="0.225" transform="rotate(-30 23.563 23.500)" fill="#ffffff" opacity="0.55"/><circle cx="24.000" cy="24.000" r="0.275" fill="#0a2044"/></svg>