<?xml version="1.0" encoding="UTF-8"?>
<svg xmlns="http://www.w3.org/2000/svg" viewBox="0 0 1200 1200" width="1200" height="1200"><title>SAMURAI UTARI Primary Mark</title><circle cx="600.000" cy="600.000" r="504.000" fill="none" stroke="#123563" stroke-width="11.088"/><circle cx="600.000" cy="600.000" r="471.240" fill="none" stroke="#123563" stroke-width="2.520"/><path d="M 589.422,545.579 Q 568.363,505.994 523.671,390.288 Q 517.777,279.763 600.649,228.049 L 632.426,187.994 L 654.978,232.134 Q 691.687,282.343 664.461,369.128 Q 631.308,505.884 610.578,545.579 Z" fill="#123563"/><path d="M 648.489,573.122 Q 679.629,540.862 775.861,462.602 Q 879.155,422.843 953.947,485.678 L 1001.861,503.522 L 966.851,538.610 Q 930.442,589.038 839.492,589.962 Q 699.185,600.692 655.027,593.244 Z" fill="#123563"/><path d="M 640.546,637.810 Q 680.850,657.457 785.017,724.796 Q 854.750,810.748 818.102,901.297 L 815.938,952.379 L 771.748,929.925 Q 712.538,910.882 683.554,824.669 Q 629.991,694.544 623.430,650.246 Z" fill="#123563"/><path d="M 576.570,650.246 Q 570.339,694.648 538.486,814.526 Q 478.289,907.406 380.847,900.533 L 331.596,914.261 L 339.295,865.295 Q 339.110,803.097 412.147,748.891 Q 519.351,657.739 559.454,637.810 Z" fill="#123563"/><path d="M 544.973,593.244 Q 500.818,601.039 376.965,607.789 Q 270.028,579.240 246.454,484.443 L 218.179,441.845 L 267.127,434.036 Q 326.223,414.639 400.347,467.351 Q 520.165,541.140 551.511,573.122 Z" fill="#123563"/><circle cx="600.000" cy="600.000" r="31.248" fill="#8b2500"/><ellipse cx="589.063" cy="587.501" rx="9.999" ry="5.625" transform="rotate(-30 589.063 587.501)" fill="#ffffff" opacity="0.55"/><circle cx="600.000" cy="600.000" r="6.875" fill="#0a2044"/></svg>