<?xml version="1.0" encoding="UTF-8"?>
<svg xmlns="http://www.w3.org/2000/svg" viewBox="0 0 1200 1200" width="1200" height="1200"><title>SAMURAI UTARI 株式会社サムライウタリ</title><rect width="1200" height="1200" fill="#f6f2e7"/><circle cx="600.000" cy="432.000" r="360.000" fill="none" stroke="#123563" stroke-width="7.920"/><circle cx="600.000" cy="432.000" r="336.600" fill="none" stroke="#123563" stroke-width="1.800"/><path d="M 592.444,393.128 Q 577.402,364.853 545.479,282.205 Q 541.269,203.259 600.464,166.320 L 623.161,137.710 L 639.270,169.238 Q 665.491,205.102 646.043,267.091 Q 622.363,364.774 607.556,393.128 Z" fill="#123563"/><path d="M 634.635,412.802 Q 656.878,389.759 725.615,333.859 Q 799.396,305.459 852.820,350.341 L 887.044,363.087 L 862.036,388.150 Q 836.030,424.170 771.066,424.830 Q 670.846,432.495 639.305,427.174 Z" fill="#123563"/><path d="M 628.962,459.007 Q 657.750,473.041 732.155,521.140 Q 781.964,582.534 755.787,647.212 L 754.242,683.699 L 722.677,667.661 Q 680.384,654.058 659.681,592.478 Q 621.422,499.532 616.736,467.890 Z" fill="#123563"/><path d="M 583.264,467.890 Q 578.814,499.606 556.061,585.233 Q 513.064,651.576 443.462,646.667 L 408.283,656.472 L 413.782,621.496 Q 413.650,577.070 465.819,538.350 Q 542.393,473.242 571.038,459.007 Z" fill="#123563"/><path d="M 560.695,427.174 Q 529.156,432.742 440.689,437.563 Q 364.306,417.171 347.467,349.459 L 327.271,319.032 L 362.234,313.454 Q 404.445,299.599 457.391,337.251 Q 542.975,389.957 565.365,412.802 Z" fill="#123563"/><circle cx="600.000" cy="432.000" r="22.320" fill="#8b2500"/><ellipse cx="592.188" cy="423.072" rx="7.142" ry="4.018" transform="rotate(-30 592.188 423.072)" fill="#ffffff" opacity="0.55"/><circle cx="600.000" cy="432.000" r="4.910" fill="#0a2044"/><polygon points="129.072,956.496 113.952,951.096 113.952,961.896" fill="#123563"/><polygon points="1070.928,956.496 1086.048,951.096 1086.048,961.896" fill="#123563"/><text x="600.000" y="978.000" text-anchor="middle" font-family="'Noto Serif CJK SC','Source Han Serif SC','Noto Serif JP','Yu Mincho',serif" font-weight="600" font-size="67.200" fill="#123563" letter-spacing="12.000">株式会社サムライウタリ</text><line x1="432.000" y1="1044.000" x2="582.720" y2="1044.000" stroke="#123563" stroke-width="1" opacity="0.75"/><line x1="617.280" y1="1044.000" x2="768.000" y2="1044.000" stroke="#123563" stroke-width="1" opacity="0.75"/><polygon points="600.000,1036.800 607.200,1044.000 600.000,1051.200 592.800,1044.000" fill="#8b2500"/><text x="600.000" y="1086.000" text-anchor="middle" font-family="'IPAexGothic','Noto Sans JP','Yu Gothic',sans-serif" font-weight="500" font-size="26.400" fill="#8b2500" letter-spacing="24.000">SAMURAI UTARI Inc.</text></svg>